<svg version="1.1" id="Layer_1" xmlns="http://www.w3.org/2000/svg" xmlns:xlink="http://www.w3.org/1999/xlink" x="0px" y="0px"
	 width="100%" viewBox="0 0 320 320" enable-background="new 0 0 320 320" xml:space="preserve">
<path fill="#000000" opacity="1.000000" stroke="none" 
	d="
M235.725815,151.309784 
	C243.158142,160.423340 249.699890,169.604904 251.404831,181.312256 
	C253.344833,194.633514 248.327606,204.708832 236.403336,211.097137 
	C225.734924,216.812592 214.061417,219.083054 202.212372,219.193649 
	C163.892288,219.551376 125.566986,219.319046 87.244568,219.499451 
	C82.747292,219.520615 81.601646,217.913620 81.608978,213.668365 
	C81.711731,154.183914 81.719627,94.699112 81.585983,35.214767 
	C81.575958,30.752787 83.018188,29.568644 87.324821,29.588102 
	C120.982117,29.740168 154.660889,28.959671 188.291534,29.920086 
	C213.024567,30.626406 233.201660,40.993835 243.964539,64.709984 
	C251.122986,80.483749 249.185287,96.202187 241.349792,111.354134 
	C237.492752,118.812706 232.502090,125.431473 226.525848,131.339569 
	C224.788498,133.057098 222.601990,134.424301 221.318405,137.322250 
	C226.244705,141.593552 231.269943,145.925842 235.725815,151.309784 
M211.429016,98.795876 
	C211.429016,108.541443 211.429016,118.287010 211.429016,129.194077 
	C219.851379,122.539795 226.010101,115.609619 230.492447,107.402786 
	C237.669800,94.261604 239.548279,80.576981 232.222961,66.836380 
	C223.196533,49.904846 207.901794,42.078556 189.643738,41.544216 
	C159.342026,40.657406 128.997192,41.287697 98.671280,41.131649 
	C94.632774,41.110870 93.172653,42.317814 93.191284,46.533386 
	C93.340775,80.358864 93.275810,114.185265 93.322296,148.011322 
	C93.323914,149.188187 92.676224,150.673492 94.459480,151.685226 
	C117.696602,131.863571 140.965439,112.014847 164.741531,91.733437 
	C171.835388,99.208839 178.681305,106.915421 186.073624,114.056389 
	C191.939865,119.723190 189.694336,126.040024 189.492172,132.355911 
	C187.656387,132.508606 186.931900,131.782257 186.246521,131.062958 
	C180.155945,124.670822 173.939224,118.390472 168.060104,111.808800 
	C165.098801,108.493622 162.904114,108.378250 159.490326,111.315620 
	C138.659683,129.239227 117.686340,146.997513 96.689758,164.727051 
	C94.328568,166.720840 93.183838,168.826752 93.230331,171.978867 
	C93.380241,182.141113 93.425400,192.310181 93.204643,202.469971 
	C93.116966,206.504776 94.321358,208.099930 98.557396,208.071991 
	C133.880814,207.838882 169.208466,207.997452 204.527451,207.506729 
	C213.976349,207.375443 223.418152,205.438278 231.818298,200.451157 
	C239.143845,196.102020 242.015579,189.538773 239.802216,181.378952 
	C235.619705,165.959671 225.044861,155.297867 212.817566,145.954239 
	C212.670242,145.841675 212.232407,146.109299 211.131409,146.437714 
	C211.131409,158.016571 211.131409,169.846817 211.131409,181.686417 
	C208.452255,181.699493 207.409866,180.259750 206.162506,179.242523 
	C193.899017,169.241486 181.568405,159.319351 169.465424,149.127136 
	C166.182297,146.362335 163.926132,146.097122 160.536362,149.027267 
	C148.692581,159.265137 136.589310,169.203064 124.565041,179.231476 
	C123.223740,180.350128 122.152512,182.062180 119.904472,181.729279 
	C119.656059,181.318314 119.199013,180.911011 119.189102,180.493118 
	C119.054985,174.835541 118.929459,169.176697 118.909233,163.517761 
	C118.884453,156.584000 122.490685,151.945770 129.688904,149.496658 
	C131.411926,152.010345 129.199341,155.369156 131.373505,158.072723 
	C132.244064,157.525650 132.992310,157.168930 133.606339,156.652588 
	C142.658234,149.040741 151.865311,141.599411 160.640594,133.679962 
	C163.894440,130.743454 165.892242,130.869995 168.945038,133.666000 
	C173.606262,137.935165 178.566650,141.897430 183.577652,145.759521 
	C188.762833,149.755829 193.313477,154.615906 199.184128,158.084122 
	C200.454025,155.166077 200.006424,152.652664 200.008392,150.207962 
	C200.030731,122.380646 200.040573,94.553246 199.976730,66.726036 
	C199.967163,62.556824 200.018173,59.455410 205.884674,59.476273 
	C211.539642,59.496380 211.442383,62.404247 211.402267,66.387802 
	C211.296600,76.881592 211.408676,87.377563 211.429016,98.795876 
z"/>
<path fill="#000000" opacity="1.000000" stroke="none" 
	d="
M67.371796,265.369293 
	C67.902008,270.062042 69.864243,273.254059 74.488258,273.324097 
	C78.521797,273.385223 80.733475,269.849548 80.787903,264.159088 
	C80.818169,260.995331 80.709137,257.828491 80.810600,254.667740 
	C80.892982,252.101746 80.300858,248.594803 84.201134,248.678665 
	C87.676254,248.753403 87.234077,252.013916 87.274071,254.464127 
	C87.333855,258.126892 87.219879,261.793518 87.325638,265.454254 
	C87.458961,270.069275 90.257332,273.347961 93.949188,273.423645 
	C97.624374,273.498932 100.619423,270.231079 100.781578,265.671387 
	C100.935371,261.346680 100.810478,257.012787 100.889839,252.684433 
	C100.925285,250.750977 101.436157,248.806686 103.748192,248.668289 
	C106.340607,248.513107 107.152222,250.483292 107.184845,252.645676 
	C107.257675,257.472626 107.528778,262.336273 107.072998,267.123444 
	C106.056557,277.799622 95.652176,282.893585 86.564804,277.220001 
	C84.659172,276.030243 83.522514,276.161316 81.717384,277.243195 
	C72.311745,282.880249 62.403038,278.163696 61.135071,267.281982 
	C60.579712,262.515869 60.903606,257.638000 60.971245,252.812897 
	C61.000866,250.699921 61.663548,248.664337 64.298889,248.691055 
	C67.041565,248.718842 67.313385,250.840088 67.330650,252.948502 
	C67.363380,256.944977 67.354034,260.941803 67.371796,265.369293 
z"/>
<path fill="#000000" opacity="1.000000" stroke="none" 
	d="
M165.034332,258.123962 
	C165.182602,255.505920 165.189819,253.332306 165.520370,251.209045 
	C165.773987,249.580002 166.909637,248.505981 168.683395,248.663300 
	C170.193176,248.797211 171.219620,249.836563 171.219162,251.299316 
	C171.216095,261.281433 171.469284,271.284607 170.883835,281.236511 
	C170.601349,286.038513 165.033493,290.499420 160.091583,291.022675 
	C154.724609,291.590942 150.289230,289.630920 147.081955,285.209290 
	C145.961472,283.664551 145.082108,281.901367 146.858505,280.293701 
	C148.839890,278.500519 150.390717,279.698914 152.004028,281.196747 
	C157.779541,286.558868 162.672516,285.559601 164.521194,278.703949 
	C163.173279,277.754364 162.006836,278.912415 160.772217,279.075195 
	C153.928253,279.977448 147.302017,275.518768 145.709793,268.804047 
	C144.423813,263.380798 144.939438,257.867554 145.108307,252.388947 
	C145.175369,250.214249 146.228058,248.430115 148.783356,248.569672 
	C151.215195,248.702515 151.601746,250.709488 151.677673,252.554733 
	C151.861862,257.030426 151.727066,261.521088 151.972641,265.991882 
	C152.193848,270.019287 154.332932,272.795074 158.564331,272.552673 
	C162.585266,272.322266 164.773788,269.648071 164.966766,265.579681 
	C165.077087,263.253998 165.016220,260.920166 165.034332,258.123962 
z"/>
<path fill="#000000" opacity="1.000000" stroke="none" 
	d="
M175.776428,252.007141 
	C175.773651,248.520142 175.754959,245.529175 175.773743,242.538467 
	C175.788605,240.171036 175.715027,237.320084 178.869003,237.256485 
	C182.429688,237.184647 182.104507,240.275299 182.250015,242.760132 
	C182.384064,245.049393 181.807785,247.398605 182.713928,249.595856 
	C184.178970,250.286346 185.351883,249.469940 186.594711,249.100998 
	C196.035904,246.298477 204.880371,251.230728 206.969604,260.454010 
	C209.013214,269.475983 202.630356,278.504333 193.422668,279.615662 
	C184.407761,280.703735 176.291214,273.545868 175.837357,263.966797 
	C175.656662,260.153229 175.787582,256.324890 175.776428,252.007141 
M199.113861,258.492249 
	C196.119507,254.475479 191.909302,254.370590 187.830185,255.716995 
	C184.493591,256.818329 182.579865,259.741241 182.329712,263.400543 
	C182.063232,267.298615 183.971786,270.084412 187.142029,272.105652 
	C190.726074,274.390717 194.320663,273.886017 197.308731,271.271515 
	C201.092087,267.961151 202.050232,263.773773 199.113861,258.492249 
z"/>
<path fill="#000000" opacity="1.000000" stroke="none" 
	d="
M256.746887,279.478271 
	C247.744690,276.556976 243.506714,271.006592 243.823746,262.981079 
	C244.096436,256.078064 248.951584,250.486816 256.311096,248.600464 
	C262.125763,247.110062 269.027527,249.866882 272.459076,254.981735 
	C274.526733,258.063660 274.404480,260.557526 270.743317,262.240356 
	C266.512390,264.185089 262.279663,266.125977 258.037598,268.046265 
	C256.563385,268.713593 254.842361,269.014252 254.159698,270.789276 
	C258.642029,274.360931 262.169250,274.325012 265.923981,270.605835 
	C266.738495,269.799011 267.333588,268.766663 268.006104,267.821350 
	C269.187073,266.161407 270.401367,264.202942 272.779388,265.641357 
	C275.220337,267.117920 274.456238,269.289520 273.433380,271.353302 
	C270.684021,276.900513 264.255646,280.144073 256.746887,279.478271 
M250.614883,261.527802 
	C250.485199,262.706757 250.865585,263.732025 252.184952,263.275116 
	C256.619751,261.739227 261.010315,260.059174 265.316833,257.299774 
	C258.748566,253.430817 254.003296,254.808929 250.614883,261.527802 
z"/>
<path fill="#000000" opacity="1.000000" stroke="none" 
	d="
M210.279510,260.677185 
	C212.339233,253.509521 216.920929,249.501312 223.747391,248.361679 
	C229.445389,247.410477 234.264343,249.593460 237.952942,253.946899 
	C241.436554,258.058441 240.844711,260.394592 235.941742,262.699615 
	C232.024445,264.541260 228.054489,266.270874 224.107391,268.049103 
	C222.642792,268.708954 220.863434,268.928192 220.223465,270.763977 
	C225.350662,274.968964 229.869446,274.326752 233.561905,268.871246 
	C234.927429,266.853699 236.116867,263.632324 239.112915,265.952698 
	C241.766357,268.007721 240.162338,270.852264 238.558197,273.069824 
	C234.277023,278.988007 226.818039,281.256927 220.376465,278.719086 
	C213.489197,276.005676 209.558060,269.202576 210.279510,260.677185 
M218.240402,258.627899 
	C217.374496,260.104462 215.686035,261.412842 217.520294,263.850861 
	C222.093277,261.779846 227.094086,260.520782 231.882614,256.688629 
	C226.469849,254.566833 222.328140,254.080551 218.240402,258.627899 
z"/>
<path fill="#000000" opacity="1.000000" stroke="none" 
	d="
M113.795776,273.028015 
	C108.693802,264.731232 110.440491,255.552826 117.747032,250.806320 
	C124.753738,246.254639 134.562820,248.019531 139.063217,254.641647 
	C141.964264,258.910370 141.555252,260.439453 136.858627,262.603180 
	C131.473419,265.084137 126.070999,267.527679 120.337357,270.141907 
	C122.792015,273.659363 125.555283,274.108063 128.835464,273.050720 
	C130.968384,272.363159 132.644882,271.118408 133.982117,269.312012 
	C135.459686,267.316101 136.624054,263.562073 139.864731,265.956360 
	C142.950073,268.235840 140.539108,271.132538 138.891815,273.352722 
	C132.640656,281.777924 121.686569,281.728516 113.795776,273.028015 
M118.130737,263.290009 
	C123.231895,262.546539 127.402130,259.752625 132.228485,257.547180 
	C125.274475,252.681061 118.798058,255.312378 118.130737,263.290009 
z"/>
<path fill="#000000" opacity="1.000000" stroke="none" 
	d="
M130.387177,106.634888 
	C129.844604,113.462524 123.840981,114.711052 120.605255,118.389107 
	C118.378098,117.132996 118.888802,115.472473 118.886459,114.071487 
	C118.859451,97.938431 118.850182,81.805161 118.912926,65.672249 
	C118.933998,60.253086 123.678726,57.581524 128.759262,59.964771 
	C131.015366,61.023094 130.328262,63.082989 130.337112,64.767784 
	C130.409592,78.572052 130.385147,92.376831 130.387177,106.634888 
z"/>
</svg>